{
  "accessors": [
    {
      "bufferView": 2,
      "componentType": 5126,
      "count": 11758,
      "max": [
        0.36856400966644287,
        0.3998880088329315,
        0.10915499925613403
      ],
      "min": [
        -0.3686409890651703,
        -0.401528000831604,
        -0.10954099893569946
      ],
      "type": "VEC3"
    },
    {
      "bufferView": 2,
      "byteOffset": 141096,
      "componentType": 5126,
      "count": 11758,
      "max": [
        1.0,
        1.0,
        1.0
      ],
      "min": [
        -1.0,
        -1.0,
        -1.0
      ],
      "type": "VEC3"
    },
    {
      "bufferView": 3,
      "componentType": 5126,
      "count": 11758,
      "max": [
        1.0,
        0.9803921580314636,
        1.0,
        1.0
      ],
      "min": [
        0.0,
        0.9803921580314636,
        0.9960784316062927,
        1.0
      ],
      "type": "VEC4"
    },
    {
      "bufferView": 1,
      "componentType": 5126,
      "count": 11758,
      "max": [
        0.9995120167732239,
        0.997905969619751
      ],
      "min": [
        0.0004879999905824661,
        0.0004879999905824661
      ],
      "type": "VEC2"
    },
    {
      "bufferView": 0,
      "componentType": 5125,
      "count": 28395,
      "type": "SCALAR"
    }
  ],
  "asset": {
    "extras": {
      "author": "CsharpGamer (https://sketchfab.com/espinalluis92)",
      "license": "CC-BY-NC-4.0 (http://creativecommons.org/licenses/by-nc/4.0/)",
      "source": "https://sketchfab.com/3d-models/low-poly-mercury-star-runner-949efc342102486d956750604d58192e",
      "title": "Low Poly Mercury Star Runner"
    },
    "generator": "Sketchfab-14.7.0",
    "version": "2.0"
  },
  "bufferViews": [
    {
      "buffer": 0,
      "byteLength": 113580,
      "name": "floatBufferViews",
      "target": 34963
    },
    {
      "buffer": 0,
      "byteLength": 94064,
      "byteOffset": 113580,
      "byteStride": 8,
      "name": "floatBufferViews",
      "target": 34962
    },
    {
      "buffer": 0,
      "byteLength": 282192,
      "byteOffset": 207644,
      "byteStride": 12,
      "name": "floatBufferViews",
      "target": 34962
    },
    {
      "buffer": 0,
      "byteLength": 188128,
      "byteOffset": 489836,
      "byteStride": 16,
      "name": "floatBufferViews",
      "target": 34962
    }
  ],
  "buffers": [
    {
      "byteLength": 677964,
      "uri": "scene.bin"
    }
  ],
  "images": [
    {
      "uri": "textures/mercury_star_runner_1_b_mtl_ship_model_baseColor.png"
    },
    {
      "uri": "textures/mercury_star_runner_1_b_mtl_ship_model_metallicRoughness.png"
    }
  ],
  "materials": [
    {
      "doubleSided": true,
      "name": "mercury_star_runner_1_b_mtl_ship_model",
      "pbrMetallicRoughness": {
        "baseColorTexture": {
          "index": 0
        },
        "metallicRoughnessTexture": {
          "index": 1
        }
      }
    }
  ],
  "meshes": [
    {
      "name": "mesh_mercury_star_runner_1_b_mercury_star_runner_1_b_mtl_ship_model_0",
      "primitives": [
        {
          "attributes": {
            "COLOR_0": 2,
            "NORMAL": 1,
            "POSITION": 0,
            "TEXCOORD_0": 3
          },
          "indices": 4,
          "material": 0,
          "mode": 4
        }
      ]
    }
  ],
  "nodes": [
    {
      "children": [
        1
      ],
      "matrix": [
        1.0,
        0.0,
        0.0,
        0.0,
        0.0,
        2.220446049250313e-16,
        -1.0,
        0.0,
        0.0,
        1.0,
        2.220446049250313e-16,
        0.0,
        0.0,
        0.0,
        0.0,
        1.0
      ],
      "name": "Sketchfab_model"
    },
    {
      "children": [
        2
      ],
      "matrix": [
        0.009999999776482582,
        0.0,
        0.0,
        0.0,
        0.0,
        0.0,
        0.009999999776482582,
        0.0,
        0.0,
        -0.009999999776482582,
        0.0,
        0.0,
        0.0,
        0.0,
        0.0,
        1.0
      ],
      "name": "83661abae4004e10b222fe0684f76a5c.fbx"
    },
    {
      "children": [
        3
      ],
      "name": "RootNode"
    },
    {
      "children": [
        4
      ],
      "matrix": [
        811.7952270507813,
        0.0,
        0.0,
        0.0,
        0.0,
        -0.00013225822991815933,
        -811.7952270507706,
        0.0,
        0.0,
        811.7952270507706,
        -0.00013225822991815933,
        0.0,
        0.0,
        0.0,
        0.0,
        1.0
      ],
      "name": "mesh_mercury_star_runner_1_b"
    },
    {
      "mesh": 0,
      "name": "mesh_mercury_star_runner_1_b_mercury_star_runner_1_b_mtl_ship_model_0"
    }
  ],
  "samplers": [
    {
      "magFilter": 9729,
      "minFilter": 9987,
      "wrapS": 10497,
      "wrapT": 10497
    }
  ],
  "scene": 0,
  "scenes": [
    {
      "name": "Sketchfab_Scene",
      "nodes": [
        0
      ]
    }
  ],
  "textures": [
    {
      "sampler": 0,
      "source": 0
    },
    {
      "sampler": 0,
      "source": 1
    }
  ]
}
